<?xml version="1.0" encoding="UTF-8" standalone="no"?>
<!-- Created with Inkscape (http://www.inkscape.org/) -->

<svg
   xmlns:dc="http://purl.org/dc/elements/1.1/"
   xmlns:cc="http://creativecommons.org/ns#"
   xmlns:rdf="http://www.w3.org/1999/02/22-rdf-syntax-ns#"
   xmlns:svg="http://www.w3.org/2000/svg"
   xmlns="http://www.w3.org/2000/svg"
   xmlns:xlink="http://www.w3.org/1999/xlink"
   xmlns:sodipodi="http://sodipodi.sourceforge.net/DTD/sodipodi-0.dtd"
   xmlns:inkscape="http://www.inkscape.org/namespaces/inkscape"
   width="245.05241"
   height="246.57697"
   id="svg2"
   version="1.1"
   inkscape:version="0.47 r22583"
   sodipodi:docname="ISET.svg">
  <defs
     id="defs4">
    <linearGradient
       inkscape:collect="always"
       id="linearGradient3710">
      <stop
         style="stop-color:#19519d;stop-opacity:1;"
         offset="0"
         id="stop3712" />
      <stop
         style="stop-color:#19519d;stop-opacity:0;"
         offset="1"
         id="stop3714" />
    </linearGradient>
    <inkscape:perspective
       sodipodi:type="inkscape:persp3d"
       inkscape:vp_x="0 : 526.18109 : 1"
       inkscape:vp_y="0 : 1000 : 0"
       inkscape:vp_z="744.09448 : 526.18109 : 1"
       inkscape:persp3d-origin="372.04724 : 350.78739 : 1"
       id="perspective10" />
    <inkscape:perspective
       id="perspective2824"
       inkscape:persp3d-origin="0.5 : 0.33333333 : 1"
       inkscape:vp_z="1 : 0.5 : 1"
       inkscape:vp_y="0 : 1000 : 0"
       inkscape:vp_x="0 : 0.5 : 1"
       sodipodi:type="inkscape:persp3d" />
    <linearGradient
       inkscape:collect="always"
       xlink:href="#linearGradient3710"
       id="linearGradient3716"
       x1="476.28693"
       y1="627.08795"
       x2="476.28693"
       y2="815.12054"
       gradientUnits="userSpaceOnUse"
       gradientTransform="matrix(0.90727545,0,0,0.87441347,36.275714,76.712986)" />
  </defs>
  <sodipodi:namedview
     id="base"
     pagecolor="#ffffff"
     bordercolor="#666666"
     borderopacity="1.0"
     inkscape:pageopacity="0.0"
     inkscape:pageshadow="2"
     inkscape:zoom="2.8"
     inkscape:cx="83.089089"
     inkscape:cy="74.360348"
     inkscape:document-units="px"
     inkscape:current-layer="layer2"
     showgrid="false"
     inkscape:window-width="1024"
     inkscape:window-height="693"
     inkscape:window-x="0"
     inkscape:window-y="24"
     inkscape:window-maximized="1" />
  <metadata
     id="metadata7">
    <rdf:RDF>
      <cc:Work
         rdf:about="">
        <dc:format>image/svg+xml</dc:format>
        <dc:type
           rdf:resource="http://purl.org/dc/dcmitype/StillImage" />
        <dc:title />
      </cc:Work>
    </rdf:RDF>
  </metadata>
  <g
     inkscape:groupmode="layer"
     id="layer4"
     inkscape:label="Fond Marin"
     transform="translate(-351.60503,-449.70644)">
    <rect
       style="fill:url(#linearGradient3716);fill-opacity:1;fill-rule:evenodd;stroke:none"
       id="rect3708"
       width="230.03815"
       height="228.77237"
       x="353.3801"
       y="461.63831" />
  </g>
  <g
     inkscape:label="Calque 1"
     inkscape:groupmode="layer"
     id="layer1"
     transform="translate(-351.60503,-449.70644)" />
  <g
     inkscape:groupmode="layer"
     id="layer2"
     inkscape:label="texte"
     transform="translate(-351.60503,-449.70644)">
    <path
       style="fill:#60c2cb;fill-opacity:1;fill-rule:evenodd;stroke:none"
       d="m 353.40544,577.59045 64.04812,-0.22755 15.62961,13.61121 54.4647,8.8397 18.65267,-22.68364 77.66761,-14.18693 0,124.75455 -230.46271,0 0,-110.10734 z"
       id="rect3744"
       sodipodi:nodetypes="ccccccccc" />
    <g
       id="g3734"
       transform="matrix(0.98494552,0,0,1,316.73282,-46.467017)">
      <rect
         y="710.42554"
         x="36.870567"
         height="32.324883"
         width="234.35539"
         id="rect3679"
         style="fill:#000000;fill-opacity:1;fill-rule:evenodd;stroke:none" />
      <g
         id="text3675"
         style="font-size:40px;font-style:normal;font-variant:normal;font-weight:normal;font-stretch:normal;fill:#f9f9f9;fill-opacity:1;stroke:none;font-family:FreeSans;-inkscape-font-specification:FreeSans">
        <path
           id="path3722"
           style="font-size:28px;font-weight:bold;fill:#f9f9f9;font-family:Gentium;-inkscape-font-specification:Gentium Bold"
           d="m 67.860764,721.71393 c -0.34636,10e-6 -0.697271,0.0137 -1.052735,0.041 l 0,7 c 0.246089,0.0456 0.460281,0.0729 0.642578,0.082 0.182286,0.009 0.373692,0.0137 0.574219,0.0137 1.513013,10e-6 2.684236,-0.31445 3.513672,-0.94336 0.829417,-0.63801 1.24413,-1.56314 1.244141,-2.77539 -1.1e-5,-0.50129 -0.100272,-0.96158 -0.300782,-1.38086 -0.191416,-0.41926 -0.48764,-0.77928 -0.888672,-1.08008 -0.40105,-0.30077 -0.911467,-0.53319 -1.53125,-0.69727 -0.619799,-0.17316 -1.353522,-0.25975 -2.201171,-0.25976 m -5.222657,16.48828 0,-0.58789 c 0.619791,-0.1276 1.102863,-0.26432 1.449219,-0.41016 0.355466,-0.15494 0.533201,-0.29622 0.533203,-0.42383 l 0,-14.83398 c -0.319013,0.0456 -0.647137,0.0957 -0.984375,0.15039 -0.328126,0.0456 -0.660808,0.0912 -0.998047,0.13672 L 62.51506,721.3858 c 0.428385,-0.10935 0.861327,-0.20962 1.298829,-0.30078 0.437497,-0.10024 0.893226,-0.18683 1.367187,-0.25976 0.473955,-0.082 0.970699,-0.14582 1.490234,-0.19141 0.528641,-0.0456 1.093745,-0.0683 1.695313,-0.0684 1.093742,2e-5 2.046215,0.10484 2.857422,0.31445 0.820302,0.20966 1.499338,0.50132 2.037109,0.875 0.546863,0.37372 0.952462,0.81577 1.216797,1.32618 0.273425,0.50131 0.410143,1.04363 0.410156,1.62695 -1.3e-5,0.70183 -0.113945,1.3353 -0.341797,1.90039 -0.218762,0.556 -0.528657,1.04819 -0.929687,1.47656 -0.401053,0.4284 -0.875011,0.78842 -1.421875,1.08008 -0.546885,0.28256 -1.148447,0.49675 -1.804688,0.64258 l 4.525391,6.49414 c 0.136706,0.19141 0.282539,0.34635 0.4375,0.46484 0.164049,0.11849 0.341783,0.20964 0.533203,0.27344 0.200507,0.0547 0.419257,0.0866 0.65625,0.0957 0.246079,0.009 0.524074,0 0.833985,-0.0273 l 0.15039,0.58789 c -0.601577,0.20052 -1.175795,0.36914 -1.722656,0.50586 -0.537774,0.1276 -0.984388,0.19141 -1.339844,0.19141 -0.264335,0 -0.5241,-0.0729 -0.779297,-0.21875 -0.246105,-0.15495 -0.432954,-0.33269 -0.560547,-0.53321 l -4.648437,-7.61523 -0.21875,0 c -0.236985,10e-6 -0.473964,-0.009 -0.710938,-0.0273 -0.236984,-0.0273 -0.483078,-0.0684 -0.738281,-0.12304 l 0,6.90429 c -5e-6,0.10938 0.164058,0.2461 0.492188,0.41016 0.328119,0.15495 0.824863,0.29623 1.490234,0.42383 l 0,0.58789 -6.152344,0" />
        <path
           id="path3724"
           style="font-size:28px;font-weight:bold;fill:#f9f9f9;font-family:Gentium;-inkscape-font-specification:Gentium Bold"
           d="m 109.23186,734.86627 c -0.0729,0.78386 -0.16864,1.47201 -0.28711,2.06446 -0.10939,0.58333 -0.20054,1.00716 -0.27344,1.27148 l -11.798828,0 0,-0.58789 c 0.619791,-0.1276 1.102863,-0.26432 1.449219,-0.41016 0.355466,-0.15494 0.533201,-0.29622 0.533203,-0.42383 l 0,-14.36914 c -2e-6,-0.10936 -0.168622,-0.24607 -0.505859,-0.41015 -0.328127,-0.16405 -0.820314,-0.30988 -1.476563,-0.4375 l 0,-0.58789 11.019528,0 0.45118,0.34179 c -0.0183,0.237 -0.0456,0.49677 -0.082,0.7793 -0.0365,0.28257 -0.082,0.56512 -0.13671,0.84766 -0.0547,0.28256 -0.11395,0.55144 -0.17774,0.80664 -0.0547,0.25522 -0.10939,0.46941 -0.16406,0.64258 l -0.61524,0 c -0.0182,-0.41926 -0.0593,-0.77017 -0.12304,-1.05274 -0.0547,-0.28254 -0.12762,-0.50584 -0.21875,-0.66992 -0.0912,-0.17316 -0.20509,-0.29165 -0.3418,-0.35547 -0.12761,-0.0729 -0.27345,-0.10936 -0.4375,-0.10937 l -5.00391,0 0,5.94726 5.53711,0 0.35547,0.38281 c -0.0729,0.12762 -0.16407,0.26434 -0.27344,0.41016 -0.10027,0.13673 -0.20964,0.27345 -0.32812,0.41016 -0.10939,0.12761 -0.22332,0.25066 -0.3418,0.36914 -0.10938,0.10938 -0.2142,0.20053 -0.31445,0.27343 -0.13673,-0.13671 -0.28712,-0.25064 -0.45117,-0.34179 -0.15496,-0.0911 -0.33725,-0.16861 -0.54688,-0.23242 -0.20053,-0.0638 -0.44206,-0.10937 -0.72461,-0.13672 -0.27344,-0.0273 -0.60157,-0.041 -0.98437,-0.041 l -1.92774,0 0,6.84961 c 0,0.13672 0.0319,0.25977 0.0957,0.36914 0.0638,0.10026 0.19596,0.19141 0.39648,0.27344 0.20052,0.0729 0.48307,0.13216 0.84766,0.17773 0.36457,0.0365 0.84765,0.0547 1.44922,0.0547 l 1.76367,0 c 0.41926,0 0.77473,-0.0228 1.0664,-0.0684 0.30078,-0.0456 0.5651,-0.14583 0.79297,-0.30078 0.22786,-0.16406 0.43293,-0.40104 0.61524,-0.71094 0.19139,-0.30989 0.3828,-0.73372 0.57422,-1.27148 l 0.58789,0.24609 0,0 m -7.98438,-15.35351 c -0.15495,-0.0638 -0.26888,-0.1367 -0.34179,-0.21875 -0.0638,-0.0911 -0.15496,-0.22329 -0.27344,-0.39649 l 5.29101,-4.33398 c 0.0911,0.0547 0.21419,0.12763 0.36914,0.21875 0.15494,0.082 0.31445,0.1732 0.47852,0.27344 0.16405,0.0912 0.31444,0.18231 0.45117,0.27343 0.13671,0.0912 0.24153,0.1732 0.31445,0.2461 l 0.12305,0.61523 -6.41211,3.32227" />
        <path
           id="path3726"
           style="font-size:28px;font-weight:bold;fill:#f9f9f9;font-family:Gentium;-inkscape-font-specification:Gentium Bold"
           d="m 140.71819,733.04791 c -2e-5,0.41016 -0.0547,0.82943 -0.16407,1.25782 -0.10938,0.42838 -0.278,0.85221 -0.50586,1.27148 -0.21876,0.41016 -0.49675,0.80208 -0.83398,1.17578 -0.32814,0.36459 -0.72006,0.6836 -1.17578,0.95703 -0.44663,0.27344 -0.95704,0.49219 -1.53125,0.65625 -0.56511,0.16406 -1.18946,0.2461 -1.87305,0.2461 -0.30079,0 -0.62891,-0.0319 -0.98437,-0.0957 -0.35548,-0.0638 -0.72006,-0.15495 -1.09375,-0.27343 -0.37371,-0.10938 -0.7474,-0.2461 -1.1211,-0.41016 -0.36458,-0.16406 -0.70638,-0.35091 -1.02539,-0.56055 -0.0638,-0.0365 -0.11393,-0.1914 -0.15039,-0.46484 -0.0273,-0.27344 -0.041,-0.59245 -0.041,-0.95703 -1e-5,-0.3737 0.0137,-0.75195 0.041,-1.13477 0.0273,-0.38281 0.0775,-0.69726 0.15039,-0.94336 l 0.56055,0.0684 c 0.20963,0.53777 0.4694,1.00261 0.7793,1.39453 0.319,0.39193 0.66991,0.72006 1.05273,0.98438 0.38281,0.25521 0.79296,0.44661 1.23047,0.57422 0.44661,0.11849 0.90234,0.17773 1.36719,0.17773 0.41015,0 0.8203,-0.082 1.23046,-0.24609 0.41927,-0.17318 0.79752,-0.4056 1.13477,-0.69727 0.33723,-0.29166 0.61067,-0.6289 0.82031,-1.01172 0.20963,-0.39192 0.31445,-0.80663 0.31446,-1.24414 -1e-5,-0.55598 -0.12306,-1.0345 -0.36914,-1.43554 -0.24611,-0.40104 -0.56968,-0.75651 -0.97071,-1.06641 -0.40105,-0.30989 -0.85678,-0.58788 -1.36719,-0.83399 -0.51042,-0.24608 -1.03451,-0.49217 -1.57226,-0.73828 -0.52865,-0.24608 -1.04818,-0.50585 -1.55859,-0.77929 -0.51043,-0.27343 -0.96615,-0.59244 -1.36719,-0.95703 -0.40105,-0.36458 -0.72461,-0.78385 -0.97071,-1.25782 -0.24609,-0.48306 -0.36914,-1.05728 -0.36914,-1.72265 0,-0.28254 0.041,-0.58788 0.12305,-0.91602 0.082,-0.32811 0.21419,-0.65623 0.39649,-0.98437 0.18228,-0.32811 0.41471,-0.64257 0.69726,-0.94336 0.29166,-0.30988 0.63802,-0.57876 1.03906,-0.80664 0.41016,-0.23697 0.87956,-0.42382 1.40821,-0.56055 0.52864,-0.1367 1.12564,-0.20506 1.79101,-0.20508 0.41015,2e-5 0.82031,0.0319 1.23047,0.0957 0.41926,0.0638 0.80663,0.15041 1.16211,0.25977 0.36457,0.10939 0.6927,0.24155 0.98438,0.39648 0.29165,0.15497 0.51952,0.32359 0.68359,0.50586 0.0638,0.0547 0.0638,0.16408 0,0.32813 -0.0547,0.15496 -0.14585,0.32814 -0.27344,0.51953 -0.1185,0.18231 -0.25522,0.3646 -0.41015,0.54687 -0.14585,0.18231 -0.27345,0.32359 -0.38282,0.42383 l -0.49218,-0.082 c -0.25522,-0.30076 -0.5241,-0.55142 -0.80665,-0.75195 -0.27344,-0.20051 -0.55599,-0.36001 -0.84765,-0.47852 -0.28256,-0.12759 -0.56511,-0.21417 -0.84766,-0.25976 -0.28256,-0.0547 -0.55144,-0.082 -0.80664,-0.082 -0.51042,10e-6 -0.94792,0.0729 -1.3125,0.21875 -0.36459,0.14584 -0.66537,0.33725 -0.90234,0.57421 -0.23699,0.22788 -0.41472,0.48309 -0.53321,0.76563 -0.10937,0.27345 -0.16406,0.53777 -0.16406,0.79297 0,0.4284 0.12305,0.81121 0.36914,1.14844 0.24609,0.32813 0.56966,0.63347 0.97071,0.91601 0.41015,0.27345 0.87043,0.53322 1.38086,0.7793 0.51952,0.2461 1.04817,0.50587 1.58593,0.7793 0.54687,0.26433 1.07551,0.55144 1.58594,0.86132 0.51952,0.30991 0.97981,0.66538 1.38086,1.06641 0.41014,0.40105 0.73827,0.86134 0.98437,1.38086 0.24609,0.51042 0.36913,1.10287 0.36915,1.77734" />
        <path
           id="path3728"
           style="font-size:28px;font-weight:bold;fill:#f9f9f9;font-family:Gentium;-inkscape-font-specification:Gentium Bold"
           d="m 173.54436,734.86627 c -0.0729,0.78386 -0.16864,1.47201 -0.28711,2.06446 -0.10939,0.58333 -0.20054,1.00716 -0.27344,1.27148 l -11.79883,0 0,-0.58789 c 0.61979,-0.1276 1.10287,-0.26432 1.44922,-0.41016 0.35547,-0.15494 0.5332,-0.29622 0.5332,-0.42383 l 0,-14.36914 c 0,-0.10936 -0.16862,-0.24607 -0.50586,-0.41015 -0.32812,-0.16405 -0.82031,-0.30988 -1.47656,-0.4375 l 0,-0.58789 11.01953,0 0.45118,0.34179 c -0.0182,0.237 -0.0456,0.49677 -0.082,0.7793 -0.0365,0.28257 -0.082,0.56512 -0.13671,0.84766 -0.0547,0.28256 -0.11395,0.55144 -0.17774,0.80664 -0.0547,0.25522 -0.10939,0.46941 -0.16406,0.64258 l -0.61524,0 c -0.0182,-0.41926 -0.0592,-0.77017 -0.12304,-1.05274 -0.0547,-0.28254 -0.12762,-0.50584 -0.21875,-0.66992 -0.0912,-0.17316 -0.20509,-0.29165 -0.3418,-0.35547 -0.12761,-0.0729 -0.27345,-0.10936 -0.4375,-0.10937 l -5.00391,0 0,5.94726 5.53711,0 0.35547,0.38281 c -0.0729,0.12762 -0.16407,0.26434 -0.27344,0.41016 -0.10027,0.13673 -0.20964,0.27345 -0.32812,0.41016 -0.10939,0.12761 -0.22332,0.25066 -0.3418,0.36914 -0.10938,0.10938 -0.2142,0.20053 -0.31445,0.27343 -0.13673,-0.13671 -0.28712,-0.25064 -0.45117,-0.34179 -0.15496,-0.0911 -0.33725,-0.16861 -0.54688,-0.23242 -0.20053,-0.0638 -0.44206,-0.10937 -0.72461,-0.13672 -0.27344,-0.0273 -0.60157,-0.041 -0.98437,-0.041 l -1.92774,0 0,6.84961 c 0,0.13672 0.0319,0.25977 0.0957,0.36914 0.0638,0.10026 0.19596,0.19141 0.39648,0.27344 0.20052,0.0729 0.48307,0.13216 0.84766,0.17773 0.36457,0.0365 0.84765,0.0547 1.44922,0.0547 l 1.76367,0 c 0.41926,0 0.77473,-0.0228 1.0664,-0.0684 0.30078,-0.0456 0.5651,-0.14583 0.79297,-0.30078 0.22786,-0.16406 0.43293,-0.40104 0.61524,-0.71094 0.19139,-0.30989 0.3828,-0.73372 0.57422,-1.27148 l 0.58789,0.24609 0,0" />
        <path
           id="path3730"
           style="font-size:28px;font-weight:bold;fill:#f9f9f9;font-family:Gentium;-inkscape-font-specification:Gentium Bold"
           d="m 198.55022,730.88776 4.74414,0 -2.40625,-7.02735 -2.33789,7.02735 m 4.99023,7.31445 0,-0.58789 c 0.71093,-0.0456 1.20767,-0.13672 1.49024,-0.27344 0.28254,-0.14583 0.36457,-0.36458 0.24609,-0.65625 l -1.55859,-4.55273 -5.57813,0 -1.51758,4.55273 c -0.082,0.28255 0.041,0.48763 0.36914,0.61524 0.33724,0.1276 0.87956,0.23242 1.62696,0.31445 l 0,0.58789 -5.6875,0 0,-0.58789 c 0.61979,-0.10938 1.10742,-0.22331 1.46289,-0.3418 0.36458,-0.1276 0.597,-0.32356 0.69726,-0.58789 l 5.08594,-15.39453 c 0.20963,-0.22785 0.46939,-0.43293 0.7793,-0.61523 0.30988,-0.19139 0.58332,-0.3509 0.82031,-0.47852 l 5.74219,16.48828 c 0.082,0.25521 0.25063,0.46029 0.50586,0.61524 0.2643,0.14583 0.69269,0.25065 1.28515,0.31445 l 0,0.58789 -5.76953,0" />
        <path
           id="path3732"
           style="font-size:28px;font-weight:bold;fill:#f9f9f9;font-family:Gentium;-inkscape-font-specification:Gentium Bold"
           d="m 245.58147,721.56354 c -0.61981,0.12762 -1.10744,0.26889 -1.46289,0.42383 -0.34637,0.15496 -0.51955,0.29624 -0.51954,0.42382 l 0,8.62696 c -1e-5,1.19401 -0.14584,2.26042 -0.4375,3.19922 -0.29168,0.9388 -0.71095,1.73177 -1.25781,2.3789 -0.54689,0.64714 -1.21225,1.14388 -1.99609,1.49024 -0.78387,0.33724 -1.66798,0.50586 -2.65235,0.50586 -0.93881,0 -1.80469,-0.13217 -2.59765,-0.39649 -0.78386,-0.25521 -1.4629,-0.64713 -2.03711,-1.17578 -0.56511,-0.53776 -1.00717,-1.21224 -1.32617,-2.02344 -0.31902,-0.81119 -0.47852,-1.77278 -0.47852,-2.88476 l 0,-9.72071 c 0,-0.10936 -0.16862,-0.24607 -0.50586,-0.41015 -0.32812,-0.16405 -0.82031,-0.30988 -1.47656,-0.4375 l 0,-0.58789 6.15234,0 0,0.58789 c -0.61979,0.12762 -1.10742,0.26889 -1.46289,0.42383 -0.34636,0.15496 -0.51953,0.29624 -0.51953,0.42382 l 0,9.03711 c 0,0.87501 0.10026,1.65886 0.30078,2.35157 0.20963,0.69271 0.51497,1.2806 0.91602,1.76367 0.41015,0.48307 0.91145,0.85221 1.5039,1.10742 0.59244,0.25521 1.28059,0.38281 2.06446,0.38281 0.64712,0 1.22134,-0.15494 1.72265,-0.46484 0.50129,-0.31901 0.92056,-0.73372 1.25782,-1.24414 0.34634,-0.51042 0.6061,-1.09375 0.77929,-1.75 0.18228,-0.65625 0.27343,-1.32161 0.27344,-1.9961 l 0,-9.1875 c -1e-5,-0.10936 -0.16863,-0.24607 -0.50586,-0.41015 -0.32814,-0.16405 -0.82032,-0.30988 -1.47656,-0.4375 l 0,-0.58789 5.74219,0 0,0.58789 0,0" />
      </g>
    </g>
    <path
       id="path2839"
       style="fill:#ffffff;fill-rule:evenodd;stroke:none"
       d="m 448.83897,554.98833 c 4.62363,-2.72901 8.97247,-5.98734 13.95251,-8.05946 2.76918,0.15138 3.2467,3.42968 3.11117,5.73945 -3.21219,5.54741 -8.55229,7.24693 -14.26228,9.1096 -3.04656,-0.42954 -5.08051,-4.31635 -2.8014,-6.78959 z m -95.3749,0.3788 c 6.07055,-6.89415 10.78314,-15.88195 19.16517,-20.17148 9.47178,-1.82843 14.58836,6.70059 9.32597,14.38592 -2.50219,7.15039 -0.17781,10.88785 -0.17781,10.88785 15.64426,-4.81305 24.01548,-3.62494 39.95502,-2.82944 8.31885,-13.8362 20.75219,-27.63985 37.73523,-29.17062 14.62467,-1.64093 19.11352,1.7083 24.79375,9.22306 6.09254,6.60991 7.01059,18.10557 2.12799,25.59119 -4.36946,8.60542 -13.16611,13.73055 -22.65791,14.14214 -7.48956,0.24905 -22.02464,-2.74125 -24.53442,4.2093 3.06044,9.31371 15.08064,10.2766 23.27881,9.25291 10.44396,-0.15331 21.61138,-1.89308 29.88082,-8.77299 5.07495,-7.45001 6.42769,-16.88315 10.29119,-25.02489 3.85474,-8.28076 7.08823,-18.46212 15.72808,-22.82517 9.36227,-1.35917 14.04443,10.3959 12.86851,18.25999 1.53136,4.3766 -7.49783,17.04821 0.61847,12.47632 17.41925,-6.49436 34.83852,-12.98871 52.25777,-19.48307 -0.16733,6.98689 -0.33465,13.97377 -0.50198,20.96066 -20.82451,9.0712 -42.98088,16.0696 -61.17404,30.17831 -5.30161,5.79272 -0.19487,24.78351 10.17421,16.10513 7.32143,-4.41557 12.74064,-11.29343 19.62652,-16.2314 7.56672,4.66608 4.13925,16.92735 2.25888,24.24366 -7.15967,9.18165 -15.59427,20.34261 -28.11049,21.21321 -11.5427,-1.47752 -17.74769,-13.45792 -22.39553,-22.91648 -3.32175,-7.17538 -2.49874,-17.57584 -12.70886,-11.83126 -15.60607,2.89842 -31.55966,7.08799 -47.50401,4.89447 -9.05513,-2.99279 -15.60729,-11.4515 -19.35097,-20.03091 -2.02516,-9.64227 -16.68704,-7.51298 -21.6873,-2.67138 3.67851,8.29739 8.87644,16.38916 10.095,25.80174 1.70004,7.14457 0.53731,15.18279 -5.13899,20.25836 -6.46099,7.9498 -13.11351,18.16419 -24.4666,18.58627 -9.0702,2.75917 -18.09767,0.36728 -19.11529,-10.22076 -2.74244,-8.13235 -5.41793,-23.55521 7.00697,-22.91457 7.12338,-2.61213 19.25104,-5.64122 17.66379,-15.4901 -3.13938,-10.2119 -10.31709,-18.52564 -17.00594,-26.59992 -2.77537,8.9571 -6.4055,20.06174 -16.43961,22.8547 -4.18916,0.31665 -1.23306,-6.28585 -2.08431,-9.16303 0.0673,-12.39257 0.13461,-24.78515 0.20191,-37.17772 z m 22.04428,-40.13548 c 5.77338,-6.57092 18.90212,-11.06798 28.06784,-15.11326 8.02131,-3.54021 12.41983,-7.08917 13.99357,-6.67246 3.37201,0.89286 11.18088,5 8.34129,13.75 -2.83959,8.75 -18.81228,18.03572 -23.07166,19.46429 -4.25938,1.42857 -17.03753,3.57143 -21.11944,1.42857 -4.08191,-2.14286 -7.45392,-3.92857 -7.45392,-7.5 0,-3.57143 -1.77475,-1.07143 1.24232,-5.35714 z"
       sodipodi:nodetypes="ccccccccccccccccccccccccccccccccccccccccccccssssssc" />
  </g>
  <g
     inkscape:groupmode="layer"
     id="layer3"
     inkscape:label="Coin"
     transform="translate(-351.60503,-449.70644)">
    <path
       style="fill:#ffbf00;fill-opacity:1;stroke:none"
       d="m 546.12173,449.70644 50.53571,0 0,50 c 0,0 -26.07143,1.07143 -26.07143,0 0,-1.07143 0,-25 0,-25 l -24.64286,0 0.17858,-25 z"
       id="path2837" />
  </g>
</svg>
